<?xml version="1.0" standalone="no"?>
<!DOCTYPE svg PUBLIC "-//W3C//DTD SVG 20010904//EN"
 "http://www.w3.org/TR/2001/REC-SVG-20010904/DTD/svg10.dtd">
<svg version="1.0" xmlns="http://www.w3.org/2000/svg"
 width="547.000000pt" height="547.000000pt" viewBox="0 0 547.000000 547.000000"
 preserveAspectRatio="xMidYMid meet">
<metadata>
Created by potrace 1.14, written by Peter Selinger 2001-2017
</metadata>
<g transform="translate(0.000000,547.000000) scale(0.100000,-0.100000)"
fill="#000000" stroke="none">
<path d="M2683 5337 c-148 -152 -323 -439 -426 -702 -165 -422 -236 -815 -223
-1235 3 -113 9 -222 12 -242 l6 -38 693 0 692 0 6 59 c60 574 -57 1190 -324
1699 -111 211 -223 374 -326 474 l-49 48 -61 -63z"/>
<path d="M36 4325 c-11 -29 -6 -188 9 -315 31 -253 112 -519 239 -792 l45 -98
801 0 c440 0 800 3 800 6 0 42 -220 312 -387 475 -287 281 -711 536 -1078 649
-38 12 -83 26 -100 31 -33 11 -203 44 -276 54 -38 5 -48 3 -53 -10z"/>
<path d="M5390 4333 c-529 -82 -1062 -357 -1456 -751 -142 -141 -318 -355
-365 -444 -9 -17 26 -18 791 -18 l800 0 34 68 c83 166 182 445 224 637 32 143
50 328 44 468 -2 51 -3 51 -72 40z"/>
<path d="M440 2911 c0 -9 101 -163 126 -191 11 -13 264 -15 2179 -15 l2166 0
20 25 c33 41 119 172 119 181 0 5 -1001 9 -2305 9 -1348 0 -2305 -4 -2305 -9z"/>
<path d="M760 2481 c0 -5 43 -50 96 -100 l96 -91 1780 0 1779 0 57 39 c51 34
162 141 162 155 0 3 -893 6 -1985 6 -1173 0 -1985 -4 -1985 -9z"/>
<path d="M1255 2080 c11 -17 196 -136 295 -188 243 -130 471 -211 690 -247
150 -24 134 -45 127 178 -4 105 -9 209 -13 230 l-7 37 -549 0 c-359 0 -547 -3
-543 -10z"/>
<path d="M2400 2085 c0 -10 106 -184 163 -268 59 -86 181 -227 189 -217 102
120 138 167 200 261 41 63 90 140 107 172 l32 57 -345 0 c-190 0 -346 -2 -346
-5z"/>
<path d="M3132 1983 c-6 -60 -15 -163 -18 -230 -8 -143 -22 -131 126 -108 311
51 639 187 920 383 36 25 69 49 75 54 5 4 -239 8 -541 8 l-551 0 -11 -107z"/>
<path d="M1820 1159 c0 -105 -3 -189 -7 -187 -136 68 -263 85 -388 52 -253
-65 -414 -332 -350 -577 42 -161 154 -284 312 -343 117 -44 277 -33 395 27
l37 19 3 -28 3 -27 115 2 115 2 3 625 2 626 -120 0 -120 0 0 -191z m-187 -349
c57 -15 129 -76 159 -133 87 -171 -43 -377 -237 -377 -243 1 -356 297 -174
454 48 41 73 53 134 66 44 8 48 8 118 -10z"/>
<path d="M2170 1230 l0 -120 115 0 115 0 0 120 0 120 -115 0 -115 0 0 -120z"/>
<path d="M3240 1159 c0 -105 -3 -189 -7 -187 -105 52 -162 68 -258 68 -137 0
-249 -46 -343 -139 -210 -211 -182 -564 60 -734 35 -24 85 -52 111 -62 114
-41 261 -36 371 14 l65 29 3 -26 3 -27 115 2 115 1 3 626 2 626 -120 0 -120 0
0 -191z m-130 -373 c86 -57 130 -132 130 -224 0 -67 -19 -118 -64 -169 -104
-119 -272 -126 -378 -16 -57 59 -78 108 -78 179 0 81 45 172 107 216 82 59
206 65 283 14z"/>
<path d="M5242 1330 c-127 -77 -21 -268 112 -205 84 40 89 154 10 206 -37 24
-80 24 -122 -1z"/>
<path d="M375 1030 c-95 -19 -203 -87 -267 -167 -153 -192 -141 -466 27 -638
103 -106 197 -145 350 -145 88 0 115 4 172 25 38 15 72 30 77 35 17 17 26 11
26 -14 0 -23 4 -25 73 -31 39 -4 90 -5 112 -3 l40 3 3 468 2 467 -115 0 -115
0 0 -34 0 -35 -43 24 c-86 49 -230 67 -342 45z m231 -234 c63 -29 120 -95 139
-160 19 -62 19 -90 0 -152 -31 -105 -123 -174 -241 -182 -61 -4 -79 -1 -119
19 -93 46 -155 141 -155 235 0 112 78 224 176 254 58 17 146 11 200 -14z"/>
<path d="M3916 1029 c-68 -16 -164 -70 -219 -123 -99 -95 -147 -208 -148 -342
-1 -198 104 -359 291 -448 62 -30 70 -31 195 -31 125 0 132 1 198 32 l67 32 0
-23 c0 -22 4 -23 110 -30 61 -4 115 -4 120 -1 6 4 10 174 10 471 l0 464 -120
0 -120 0 0 -31 c0 -17 -3 -29 -7 -27 -58 29 -117 51 -157 59 -60 11 -167 10
-220 -2z m232 -229 c49 -22 94 -67 125 -125 33 -62 31 -175 -5 -235 -74 -126
-207 -174 -328 -119 -132 59 -194 210 -140 337 24 56 91 125 143 147 48 21
154 18 205 -5z"/>
<path d="M4903 1030 c-215 -46 -323 -248 -225 -423 49 -87 144 -130 355 -162
109 -17 153 -35 168 -69 15 -32 -11 -80 -54 -103 -41 -21 -148 -21 -199 0 -40
17 -78 68 -78 105 0 22 -2 22 -126 22 l-127 0 6 -45 c19 -133 125 -232 292
-270 53 -12 248 -6 296 9 154 47 232 133 246 272 16 149 -88 259 -277 295
-254 48 -292 62 -298 111 -5 39 26 67 88 78 113 22 194 -10 209 -80 l7 -35
118 -3 119 -3 -7 43 c-9 56 -52 132 -95 170 -19 17 -64 45 -100 61 -57 27 -77
31 -170 33 -58 2 -125 -1 -148 -6z"/>
<path d="M2170 563 l0 -468 113 0 112 0 3 468 2 467 -115 0 -115 0 0 -467z"/>
</g>
</svg>
